<svg width="18" height="19" viewBox="0 0 18 19" fill="none" xmlns="http://www.w3.org/2000/svg">
<path d="M16.2826 11.5931L16.4563 9.88842C16.549 8.97889 16.6102 8.3783 16.5622 7.9999L16.5789 8C17.3638 8 18 7.32843 18 6.5C18 5.67157 17.3638 5 16.5789 5C15.7941 5 15.1579 5.67157 15.1579 6.5C15.1579 6.87466 15.288 7.21724 15.5032 7.48013C15.1943 7.68136 14.7905 8.10599 14.1826 8.74513L14.1826 8.74515C13.7143 9.23754 13.4801 9.48374 13.2189 9.52187C13.0742 9.54299 12.9267 9.52128 12.7931 9.45916C12.5519 9.34704 12.391 9.04268 12.0694 8.43396L10.3741 5.2254C10.1757 4.84987 10.0096 4.53557 9.8599 4.28265C10.4741 3.95187 10.8947 3.27778 10.8947 2.5C10.8947 1.39543 10.0464 0.5 9 0.5C7.95357 0.5 7.10526 1.39543 7.10526 2.5C7.10526 3.27778 7.52588 3.95187 8.1401 4.28265C7.99036 4.53559 7.82432 4.84984 7.62589 5.2254L5.93058 8.43396C5.60895 9.04268 5.44813 9.34704 5.20693 9.45916C5.07329 9.52128 4.92582 9.54299 4.78108 9.52187C4.51987 9.48374 4.28572 9.23754 3.81742 8.74515C3.20956 8.10601 2.80569 7.68136 2.49682 7.48012C2.71197 7.21724 2.84211 6.87466 2.84211 6.5C2.84211 5.67157 2.20588 5 1.42105 5C0.636227 5 0 5.67157 0 6.5C0 7.32843 0.636227 8 1.42105 8L1.43783 7.9999C1.3898 8.3783 1.451 8.97889 1.54369 9.88842L1.71739 11.5931C1.81381 12.5393 1.89399 13.4396 1.9922 14.25H16.0078C16.106 13.4396 16.1862 12.5393 16.2826 11.5931Z" fill="black" fill-opacity="0.75"/>
<path d="M7.96932 18.5H10.0307C12.7173 18.5 14.0607 18.5 14.957 17.6532C15.3482 17.2835 15.5959 16.6172 15.7747 15.75H2.22533C2.40409 16.6172 2.65181 17.2835 3.04302 17.6532C3.93932 18.5 5.28265 18.5 7.96932 18.5Z" fill="black" fill-opacity="0.75"/>
</svg>
