<svg width="24" height="24" viewBox="0 0 24 24" fill="none" xmlns="http://www.w3.org/2000/svg">
<path d="M20.2854 5.96096C17.5896 3.94388 15.007 4.00039 15.007 4.00039L14.743 4.30191C17.9478 5.26344 19.4371 6.67724 19.4371 6.67724C14.852 4.15277 9.01156 4.17083 4.24237 6.67724C4.24237 6.67724 5.78818 5.18794 9.18154 4.22641L8.99303 4.00016C8.99303 4.00016 6.42919 3.94365 3.7146 5.96073C3.7146 5.96073 1 10.8434 1 16.8571C1 16.8571 2.58355 19.5717 6.74993 19.7037C6.74993 19.7037 7.44746 18.8742 8.01298 18.1579C5.61866 17.4416 4.71387 15.9523 4.71387 15.9523C6.21799 16.8935 7.73902 17.4826 9.63428 17.8564C12.718 18.4911 16.5537 17.8385 19.4184 15.9523C19.4184 15.9523 18.4758 17.4794 16.0062 18.1769C16.5718 18.8744 17.2505 19.6849 17.2505 19.6849C21.4164 19.5532 23 16.8386 23 16.8573C23 10.8436 20.2854 5.96096 20.2854 5.96096ZM8.48402 15.1043C7.42824 15.1043 6.5612 14.1805 6.5612 13.0304C6.63831 10.2765 10.3492 10.285 10.4071 13.0304C10.4068 14.1805 9.55855 15.1043 8.48402 15.1043ZM15.365 15.1043C14.3092 15.1043 13.4422 14.1805 13.4422 13.0304C13.5269 10.2818 17.1915 10.2806 17.288 13.0304C17.2878 14.1805 16.4395 15.1043 15.365 15.1043Z" fill="white"/>
</svg>
