<svg width="368" height="223" viewBox="0 0 368 223" fill="none" xmlns="http://www.w3.org/2000/svg">
<path d="M20 2.5V17.5C20 18.6046 19.1046 19.5 18 19.5H3C1.89543 19.5 1 20.3954 1 21.5V201C1 202.105 1.89543 203 3 203H18C19.1046 203 20 203.895 20 205V220.5C20 221.605 20.8954 222.5 22 222.5H345.5C346.605 222.5 347.5 221.605 347.5 220.5V205C347.5 203.895 348.395 203 349.5 203H365.5C366.605 203 367.5 202.105 367.5 201V21.5C367.5 20.3954 366.605 19.5 365.5 19.5H349.5C348.395 19.5 347.5 18.6046 347.5 17.5V2.5C347.5 1.39543 346.605 0.5 345.5 0.5H22C20.8954 0.5 20 1.39543 20 2.5Z" stroke="url(#paint0_linear_298_11207)"/>
<defs>
<linearGradient id="paint0_linear_298_11207" x1="184.25" y1="0.5" x2="184.25" y2="222.5" gradientUnits="userSpaceOnUse">
<stop stop-color="#FF7B15"/>
<stop offset="1" stop-color="#FF5B15"/>
</linearGradient>
</defs>
</svg>
