<svg width="36" height="36" viewBox="0 0 36 36" fill="none" xmlns="http://www.w3.org/2000/svg">
<path d="M34.4784 23.9492C33.7171 22.9963 32.8511 22.1404 32.0126 21.3168C31.7153 21.0202 31.4068 20.7167 31.1108 20.4159C30.2586 19.546 30.227 19.2185 30.9016 18.2319C31.3683 17.5516 31.864 16.8728 32.3417 16.2123C32.7767 15.6178 33.2255 14.998 33.6551 14.3796L33.7446 14.2531C34.5665 13.0655 35.4174 11.84 35.8689 10.3601C35.9873 9.96935 36.1098 9.3959 35.8276 8.91384C35.5467 8.43178 34.9988 8.28845 34.6119 8.22099C34.4206 8.18585 34.2305 8.18161 34.0543 8.18161L28.6685 8.17741H28.6245C27.8094 8.17741 27.2615 8.57657 26.9462 9.40296C26.6461 10.1872 26.3171 11.0248 25.9412 11.8217C25.1923 13.4056 24.2409 15.2313 22.8641 16.7533L22.8063 16.818C22.6438 17.0007 22.4594 17.2087 22.3245 17.2087C22.3038 17.2087 22.2818 17.2045 22.257 17.1961C21.9706 17.078 21.7806 16.3598 21.7889 16.0239C21.7889 16.0211 21.7889 16.0169 21.7889 16.0113L21.7847 9.52099C21.7847 9.50132 21.7834 9.47885 21.7806 9.45636C21.6443 8.40228 21.34 7.74312 20.1932 7.50982C20.1629 7.50279 20.1327 7.5 20.101 7.5H14.5018C13.589 7.5 13.0864 7.88647 12.6142 8.46551C12.4862 8.62291 12.2204 8.94196 12.3526 9.33408C12.4861 9.73182 12.9185 9.81473 13.0603 9.84284C13.7611 9.97777 14.1562 10.4261 14.2677 11.2089C14.4632 12.5624 14.4866 14.01 14.3434 15.7583C14.3035 16.246 14.2237 16.6212 14.0929 16.9417C14.0626 17.019 13.9552 17.2635 13.8451 17.2635C13.8106 17.2635 13.7102 17.2509 13.5257 17.1188C13.092 16.8054 12.774 16.3641 12.4036 15.8188C11.1425 13.9608 10.0851 11.913 9.1682 9.56316C8.82952 8.696 8.19487 8.21115 7.38121 8.1971C6.4877 8.18164 5.67678 8.176 4.90443 8.176C4.06048 8.176 3.27711 8.18444 2.51301 8.2013C1.85906 8.21254 1.40612 8.41916 1.16794 8.80987C0.929764 9.20058 0.944936 9.71494 1.2134 10.339C3.36939 15.3325 5.32299 18.9613 7.54919 22.1109C9.10905 24.3146 10.673 25.8423 12.4724 26.909C14.3682 28.0376 16.4925 28.5885 18.9665 28.5885C19.246 28.5885 19.5366 28.5829 19.8284 28.5674C21.2671 28.4957 21.7999 27.9532 21.8673 26.4944C21.899 25.7467 21.9775 24.9653 22.3299 24.3005C22.5516 23.8789 22.7582 23.8789 22.8256 23.8789C22.9564 23.8789 23.1202 23.9421 23.2937 24.0602C23.6062 24.2724 23.8747 24.5563 24.095 24.8079C24.3015 25.044 24.5066 25.2829 24.7118 25.5218C25.1537 26.0362 25.6108 26.5745 26.0885 27.0777C27.1348 28.1865 28.2858 28.6756 29.6089 28.5688H34.5472C34.5569 28.5688 34.5678 28.5674 34.5775 28.5674C35.0704 28.5323 35.4958 28.2498 35.7478 27.786C36.0575 27.214 36.052 26.4832 35.7299 25.8367C35.3664 25.0974 34.8928 24.4678 34.4784 23.9492Z" fill="white" fill-opacity="0.95"/>
</svg>
